<svg width="405" height="406" viewBox="0 0 405 406" fill="none" xmlns="http://www.w3.org/2000/svg">
<path d="M136.945 167.72C138.212 167.72 139.272 167.84 140.125 168.08C140.992 168.307 141.638 168.687 142.065 169.22C142.505 169.74 142.725 170.447 142.725 171.34C142.725 171.873 142.638 172.36 142.465 172.8C142.292 173.24 142.038 173.6 141.705 173.88C141.385 174.16 140.992 174.34 140.525 174.42V174.52C141.005 174.613 141.438 174.78 141.825 175.02C142.212 175.26 142.518 175.607 142.745 176.06C142.972 176.513 143.085 177.113 143.085 177.86C143.085 178.727 142.872 179.473 142.445 180.1C142.032 180.713 141.432 181.187 140.645 181.52C139.858 181.84 138.925 182 137.845 182H132.505V167.72H136.945ZM137.285 173.38C138.165 173.38 138.772 173.24 139.105 172.96C139.452 172.68 139.625 172.273 139.625 171.74C139.625 171.193 139.425 170.8 139.025 170.56C138.625 170.32 137.992 170.2 137.125 170.2H135.525V173.38H137.285ZM135.525 175.78V179.5H137.505C138.412 179.5 139.045 179.327 139.405 178.98C139.765 178.62 139.945 178.147 139.945 177.56C139.945 177.2 139.865 176.887 139.705 176.62C139.558 176.353 139.298 176.147 138.925 176C138.552 175.853 138.045 175.78 137.405 175.78H135.525ZM155.623 176.52C155.623 177.427 155.496 178.233 155.243 178.94C155.003 179.647 154.649 180.247 154.183 180.74C153.729 181.22 153.176 181.587 152.523 181.84C151.869 182.08 151.129 182.2 150.303 182.2C149.543 182.2 148.836 182.08 148.183 181.84C147.543 181.587 146.989 181.22 146.523 180.74C146.056 180.247 145.689 179.647 145.423 178.94C145.169 178.233 145.043 177.427 145.043 176.52C145.043 175.307 145.256 174.287 145.683 173.46C146.109 172.62 146.723 171.98 147.523 171.54C148.323 171.1 149.269 170.88 150.363 170.88C151.389 170.88 152.296 171.1 153.083 171.54C153.869 171.98 154.489 172.62 154.943 173.46C155.396 174.287 155.623 175.307 155.623 176.52ZM148.083 176.52C148.083 177.24 148.156 177.847 148.303 178.34C148.463 178.82 148.709 179.187 149.043 179.44C149.376 179.68 149.809 179.8 150.343 179.8C150.876 179.8 151.303 179.68 151.623 179.44C151.956 179.187 152.196 178.82 152.343 178.34C152.503 177.847 152.583 177.24 152.583 176.52C152.583 175.8 152.503 175.2 152.343 174.72C152.196 174.24 151.956 173.88 151.623 173.64C151.289 173.4 150.856 173.28 150.323 173.28C149.536 173.28 148.963 173.553 148.603 174.1C148.256 174.633 148.083 175.44 148.083 176.52ZM162.065 170.88C162.852 170.88 163.585 170.987 164.265 171.2C164.959 171.4 165.512 171.713 165.925 172.14C166.352 172.567 166.565 173.113 166.565 173.78C166.565 174.433 166.365 174.953 165.965 175.34C165.579 175.727 165.052 176.007 164.385 176.18V176.28C164.852 176.387 165.272 176.54 165.645 176.74C166.019 176.927 166.312 177.187 166.525 177.52C166.752 177.84 166.865 178.273 166.865 178.82C166.865 179.42 166.672 179.98 166.285 180.5C165.912 181.007 165.325 181.42 164.525 181.74C163.739 182.047 162.725 182.2 161.485 182.2C160.899 182.2 160.345 182.173 159.825 182.12C159.305 182.067 158.832 181.993 158.405 181.9C157.979 181.793 157.605 181.667 157.285 181.52V179.06C157.739 179.273 158.292 179.467 158.945 179.64C159.612 179.813 160.319 179.9 161.065 179.9C161.612 179.9 162.099 179.86 162.525 179.78C162.965 179.7 163.312 179.567 163.565 179.38C163.832 179.193 163.965 178.947 163.965 178.64C163.965 178.347 163.852 178.107 163.625 177.92C163.399 177.72 163.059 177.573 162.605 177.48C162.152 177.387 161.572 177.34 160.865 177.34H159.705V175.28H160.805C161.792 175.28 162.552 175.2 163.085 175.04C163.632 174.88 163.905 174.58 163.905 174.14C163.905 173.793 163.732 173.533 163.385 173.36C163.039 173.173 162.472 173.08 161.685 173.08C161.165 173.08 160.599 173.14 159.985 173.26C159.372 173.38 158.792 173.553 158.245 173.78L157.365 171.7C157.992 171.46 158.679 171.267 159.425 171.12C160.172 170.96 161.052 170.88 162.065 170.88ZM182.939 171.08V182H180.159V176.64C180.159 176.107 180.166 175.587 180.179 175.08C180.206 174.573 180.239 174.107 180.279 173.68H180.219L177.199 182H174.959L171.899 173.66H171.819C171.872 174.1 171.906 174.573 171.919 175.08C171.946 175.573 171.959 176.12 171.959 176.72V182H169.179V171.08H173.399L176.119 178.48L178.879 171.08H182.939ZM195.974 176.52C195.974 177.427 195.847 178.233 195.594 178.94C195.354 179.647 195.001 180.247 194.534 180.74C194.081 181.22 193.527 181.587 192.874 181.84C192.221 182.08 191.481 182.2 190.654 182.2C189.894 182.2 189.187 182.08 188.534 181.84C187.894 181.587 187.341 181.22 186.874 180.74C186.407 180.247 186.041 179.647 185.774 178.94C185.521 178.233 185.394 177.427 185.394 176.52C185.394 175.307 185.607 174.287 186.034 173.46C186.461 172.62 187.074 171.98 187.874 171.54C188.674 171.1 189.621 170.88 190.714 170.88C191.741 170.88 192.647 171.1 193.434 171.54C194.221 171.98 194.841 172.62 195.294 173.46C195.747 174.287 195.974 175.307 195.974 176.52ZM188.434 176.52C188.434 177.24 188.507 177.847 188.654 178.34C188.814 178.82 189.061 179.187 189.394 179.44C189.727 179.68 190.161 179.8 190.694 179.8C191.227 179.8 191.654 179.68 191.974 179.44C192.307 179.187 192.547 178.82 192.694 178.34C192.854 177.847 192.934 177.24 192.934 176.52C192.934 175.8 192.854 175.2 192.694 174.72C192.547 174.24 192.307 173.88 191.974 173.64C191.641 173.4 191.207 173.28 190.674 173.28C189.887 173.28 189.314 173.553 188.954 174.1C188.607 174.633 188.434 175.44 188.434 176.52ZM213.566 171.08L209.546 176.32L213.946 182H210.766L206.606 176.46V182H203.826V176.46L199.666 182H196.486L200.886 176.32L196.866 171.08H199.946L203.826 176.38V171.08H206.606V176.38L210.486 171.08H213.566ZM218.487 171.08V175.28H222.647V171.08H225.627V182H222.647V177.5H218.487V182H215.507V171.08H218.487ZM238.669 176.52C238.669 177.427 238.543 178.233 238.289 178.94C238.049 179.647 237.696 180.247 237.229 180.74C236.776 181.22 236.223 181.587 235.569 181.84C234.916 182.08 234.176 182.2 233.349 182.2C232.589 182.2 231.883 182.08 231.229 181.84C230.589 181.587 230.036 181.22 229.569 180.74C229.103 180.247 228.736 179.647 228.469 178.94C228.216 178.233 228.089 177.427 228.089 176.52C228.089 175.307 228.303 174.287 228.729 173.46C229.156 172.62 229.769 171.98 230.569 171.54C231.369 171.1 232.316 170.88 233.409 170.88C234.436 170.88 235.343 171.1 236.129 171.54C236.916 171.98 237.536 172.62 237.989 173.46C238.443 174.287 238.669 175.307 238.669 176.52ZM231.129 176.52C231.129 177.24 231.203 177.847 231.349 178.34C231.509 178.82 231.756 179.187 232.089 179.44C232.423 179.68 232.856 179.8 233.389 179.8C233.923 179.8 234.349 179.68 234.669 179.44C235.003 179.187 235.243 178.82 235.389 178.34C235.549 177.847 235.629 177.24 235.629 176.52C235.629 175.8 235.549 175.2 235.389 174.72C235.243 174.24 235.003 173.88 234.669 173.64C234.336 173.4 233.903 173.28 233.369 173.28C232.583 173.28 232.009 173.553 231.649 174.1C231.303 174.633 231.129 175.44 231.129 176.52ZM245.572 182.2C244.492 182.2 243.572 182.007 242.812 181.62C242.052 181.22 241.472 180.607 241.072 179.78C240.672 178.953 240.472 177.893 240.472 176.6C240.472 175.267 240.699 174.18 241.152 173.34C241.606 172.5 242.232 171.88 243.032 171.48C243.846 171.08 244.779 170.88 245.832 170.88C246.579 170.88 247.226 170.953 247.772 171.1C248.332 171.247 248.819 171.42 249.232 171.62L248.352 173.92C247.886 173.733 247.446 173.58 247.032 173.46C246.632 173.34 246.232 173.28 245.832 173.28C245.312 173.28 244.879 173.407 244.532 173.66C244.186 173.9 243.926 174.267 243.752 174.76C243.592 175.24 243.512 175.847 243.512 176.58C243.512 177.3 243.599 177.9 243.772 178.38C243.959 178.847 244.226 179.2 244.572 179.44C244.919 179.667 245.339 179.78 245.832 179.78C246.459 179.78 247.012 179.7 247.492 179.54C247.972 179.367 248.439 179.133 248.892 178.84V181.38C248.439 181.673 247.959 181.88 247.452 182C246.959 182.133 246.332 182.2 245.572 182.2ZM260.446 173.32H256.866V182H253.886V173.32H250.306V171.08H260.446V173.32ZM265.34 175.4C265.34 175.627 265.327 175.907 265.3 176.24C265.287 176.573 265.267 176.913 265.24 177.26C265.227 177.607 265.207 177.913 265.18 178.18C265.154 178.447 265.134 178.633 265.12 178.74L270.16 171.08H273.74V182H270.86V177.64C270.86 177.28 270.874 176.887 270.9 176.46C270.927 176.02 270.954 175.613 270.98 175.24C271.02 174.853 271.047 174.56 271.06 174.36L266.04 182H262.46V171.08H265.34V175.4ZM160.846 212.2C159.766 212.2 158.846 212.007 158.086 211.62C157.326 211.22 156.746 210.607 156.346 209.78C155.946 208.953 155.746 207.893 155.746 206.6C155.746 205.267 155.972 204.18 156.426 203.34C156.879 202.5 157.506 201.88 158.306 201.48C159.119 201.08 160.052 200.88 161.106 200.88C161.852 200.88 162.499 200.953 163.046 201.1C163.606 201.247 164.092 201.42 164.506 201.62L163.626 203.92C163.159 203.733 162.719 203.58 162.306 203.46C161.906 203.34 161.506 203.28 161.106 203.28C160.586 203.28 160.152 203.407 159.806 203.66C159.459 203.9 159.199 204.267 159.026 204.76C158.866 205.24 158.786 205.847 158.786 206.58C158.786 207.3 158.872 207.9 159.046 208.38C159.232 208.847 159.499 209.2 159.846 209.44C160.192 209.667 160.612 209.78 161.106 209.78C161.732 209.78 162.286 209.7 162.766 209.54C163.246 209.367 163.712 209.133 164.166 208.84V211.38C163.712 211.673 163.232 211.88 162.726 212C162.232 212.133 161.606 212.2 160.846 212.2ZM169.559 205.4C169.559 205.627 169.546 205.907 169.519 206.24C169.506 206.573 169.486 206.913 169.459 207.26C169.446 207.607 169.426 207.913 169.399 208.18C169.372 208.447 169.352 208.633 169.339 208.74L174.379 201.08H177.959V212H175.079V207.64C175.079 207.28 175.092 206.887 175.119 206.46C175.146 206.02 175.172 205.613 175.199 205.24C175.239 204.853 175.266 204.56 175.279 204.36L170.259 212H166.679V201.08H169.559V205.4ZM185.514 212.2C184.434 212.2 183.514 212.007 182.754 211.62C181.994 211.22 181.414 210.607 181.014 209.78C180.614 208.953 180.414 207.893 180.414 206.6C180.414 205.267 180.64 204.18 181.094 203.34C181.547 202.5 182.174 201.88 182.974 201.48C183.787 201.08 184.72 200.88 185.774 200.88C186.52 200.88 187.167 200.953 187.714 201.1C188.274 201.247 188.76 201.42 189.174 201.62L188.294 203.92C187.827 203.733 187.387 203.58 186.974 203.46C186.574 203.34 186.174 203.28 185.774 203.28C185.254 203.28 184.82 203.407 184.474 203.66C184.127 203.9 183.867 204.267 183.694 204.76C183.534 205.24 183.454 205.847 183.454 206.58C183.454 207.3 183.54 207.9 183.714 208.38C183.9 208.847 184.167 209.2 184.514 209.44C184.86 209.667 185.28 209.78 185.774 209.78C186.4 209.78 186.954 209.7 187.434 209.54C187.914 209.367 188.38 209.133 188.834 208.84V211.38C188.38 211.673 187.9 211.88 187.394 212C186.9 212.133 186.274 212.2 185.514 212.2ZM200.387 203.32H196.807V212H193.827V203.32H190.247V201.08H200.387V203.32ZM206.706 200.88C207.72 200.88 208.586 201.073 209.306 201.46C210.04 201.847 210.606 202.407 211.006 203.14C211.406 203.873 211.606 204.773 211.606 205.84V207.28H204.566C204.593 208.12 204.84 208.78 205.306 209.26C205.786 209.74 206.446 209.98 207.286 209.98C207.993 209.98 208.633 209.913 209.206 209.78C209.78 209.633 210.373 209.413 210.986 209.12V211.42C210.453 211.687 209.886 211.88 209.286 212C208.7 212.133 207.986 212.2 207.146 212.2C206.053 212.2 205.086 212 204.246 211.6C203.406 211.187 202.746 210.567 202.266 209.74C201.786 208.913 201.546 207.873 201.546 206.62C201.546 205.34 201.76 204.28 202.186 203.44C202.626 202.587 203.233 201.947 204.006 201.52C204.78 201.093 205.68 200.88 206.706 200.88ZM206.726 203C206.153 203 205.673 203.187 205.286 203.56C204.913 203.933 204.693 204.513 204.626 205.3H208.806C208.806 204.86 208.726 204.467 208.566 204.12C208.42 203.773 208.193 203.5 207.886 203.3C207.58 203.1 207.193 203 206.726 203ZM227.783 201.08V212H225.003V206.64C225.003 206.107 225.01 205.587 225.023 205.08C225.05 204.573 225.083 204.107 225.123 203.68H225.063L222.043 212H219.803L216.743 203.66H216.663C216.716 204.1 216.75 204.573 216.763 205.08C216.79 205.573 216.803 206.12 216.803 206.72V212H214.023V201.08H218.243L220.963 208.48L223.723 201.08H227.783ZM230.898 212V201.08H233.878V205.3H235.318C236.438 205.3 237.358 205.42 238.078 205.66C238.798 205.887 239.331 206.24 239.678 206.72C240.038 207.2 240.218 207.8 240.218 208.52C240.218 209.227 240.051 209.84 239.718 210.36C239.398 210.88 238.885 211.287 238.178 211.58C237.485 211.86 236.565 212 235.418 212H230.898ZM235.258 209.94C235.845 209.94 236.318 209.833 236.678 209.62C237.051 209.407 237.238 209.053 237.238 208.56C237.238 208.133 237.065 207.827 236.718 207.64C236.385 207.453 235.885 207.36 235.218 207.36H233.878V209.94H235.258ZM241.798 212V201.08H244.778V212H241.798ZM161.411 242L160.371 238.6H155.171L154.131 242H150.871L155.911 227.66H159.611L164.671 242H161.411ZM158.611 232.74C158.544 232.513 158.458 232.227 158.351 231.88C158.244 231.533 158.138 231.18 158.031 230.82C157.924 230.46 157.838 230.147 157.771 229.88C157.704 230.147 157.611 230.48 157.491 230.88C157.384 231.267 157.278 231.64 157.171 232C157.078 232.347 157.004 232.593 156.951 232.74L155.931 236.06H159.651L158.611 232.74ZM166.48 227.72H169.2V234.62C169.2 234.953 169.193 235.327 169.18 235.74C169.166 236.153 169.153 236.56 169.14 236.96C169.126 237.347 169.113 237.687 169.1 237.98C169.086 238.26 169.073 238.453 169.06 238.56H169.12L175.72 227.72H179.34V242H176.64V235.14C176.64 234.78 176.646 234.387 176.66 233.96C176.673 233.52 176.686 233.1 176.7 232.7C176.726 232.3 176.746 231.953 176.76 231.66C176.786 231.353 176.806 231.153 176.82 231.06H176.74L170.12 242H166.48V227.72ZM182.945 227.72H185.665V234.62C185.665 234.953 185.658 235.327 185.645 235.74C185.631 236.153 185.618 236.56 185.605 236.96C185.591 237.347 185.578 237.687 185.565 237.98C185.551 238.26 185.538 238.453 185.525 238.56H185.585L192.185 227.72H195.805V242H193.105V235.14C193.105 234.78 193.111 234.387 193.125 233.96C193.138 233.52 193.151 233.1 193.165 232.7C193.191 232.3 193.211 231.953 193.225 231.66C193.251 231.353 193.271 231.153 193.285 231.06H193.205L186.585 242H182.945V227.72ZM205.469 230.04C204.896 230.04 204.383 230.153 203.929 230.38C203.489 230.607 203.116 230.933 202.809 231.36C202.503 231.773 202.269 232.28 202.109 232.88C201.963 233.48 201.889 234.153 201.889 234.9C201.889 235.913 202.009 236.78 202.249 237.5C202.503 238.207 202.896 238.747 203.429 239.12C203.963 239.493 204.643 239.68 205.469 239.68C206.056 239.68 206.636 239.613 207.209 239.48C207.796 239.347 208.429 239.16 209.109 238.92V241.46C208.483 241.713 207.863 241.9 207.249 242.02C206.636 242.14 205.949 242.2 205.189 242.2C203.723 242.2 202.509 241.9 201.549 241.3C200.603 240.687 199.903 239.833 199.449 238.74C198.996 237.633 198.769 236.347 198.769 234.88C198.769 233.8 198.916 232.813 199.209 231.92C199.503 231.013 199.929 230.233 200.489 229.58C201.063 228.927 201.763 228.42 202.589 228.06C203.429 227.7 204.389 227.52 205.469 227.52C206.176 227.52 206.883 227.613 207.589 227.8C208.309 227.973 208.996 228.213 209.649 228.52L208.669 230.98C208.136 230.727 207.596 230.507 207.049 230.32C206.516 230.133 205.989 230.04 205.469 230.04ZM228.608 242H225.168L219.988 234.76V242H216.968V227.72H219.988V234.64L225.108 227.72H228.328L223.128 234.58L228.608 242ZM237.445 237.82C237.045 238.727 236.619 239.513 236.165 240.18C235.725 240.833 235.159 241.333 234.465 241.68C233.772 242.027 232.865 242.2 231.745 242.2C231.399 242.2 231.019 242.173 230.605 242.12C230.192 242.067 229.812 241.993 229.465 241.9V239.3C229.785 239.433 230.139 239.527 230.525 239.58C230.912 239.633 231.272 239.66 231.605 239.66C232.045 239.66 232.399 239.587 232.665 239.44C232.945 239.293 233.165 239.093 233.325 238.84C233.499 238.573 233.639 238.287 233.745 237.98L228.805 227.72H232.005L234.665 233.9C234.732 234.033 234.812 234.207 234.905 234.42C234.999 234.633 235.092 234.853 235.185 235.08C235.279 235.307 235.352 235.507 235.405 235.68H235.505C235.559 235.52 235.625 235.327 235.705 235.1C235.799 234.86 235.892 234.62 235.985 234.38C236.092 234.127 236.185 233.907 236.265 233.72L238.745 227.72H241.865L237.445 237.82ZM247.267 230.04C246.627 230.04 245.994 230.133 245.367 230.32C244.741 230.493 244.127 230.707 243.527 230.96L242.567 228.52C243.274 228.213 244.021 227.973 244.807 227.8C245.594 227.613 246.434 227.52 247.327 227.52C248.381 227.52 249.314 227.687 250.127 228.02C250.954 228.34 251.647 228.82 252.207 229.46C252.781 230.087 253.214 230.86 253.507 231.78C253.814 232.687 253.967 233.72 253.967 234.88C253.967 236.347 253.721 237.633 253.227 238.74C252.734 239.833 251.974 240.687 250.947 241.3C249.934 241.9 248.634 242.2 247.047 242.2C246.234 242.2 245.494 242.14 244.827 242.02C244.174 241.9 243.507 241.713 242.827 241.46V238.92C243.587 239.16 244.287 239.347 244.927 239.48C245.581 239.613 246.227 239.68 246.867 239.68C247.481 239.68 248.021 239.607 248.487 239.46C248.967 239.3 249.367 239.073 249.687 238.78C250.021 238.473 250.281 238.093 250.467 237.64C250.654 237.173 250.761 236.64 250.787 236.04H244.587V233.56H250.767C250.754 233 250.661 232.507 250.487 232.08C250.314 231.64 250.074 231.273 249.767 230.98C249.461 230.673 249.094 230.44 248.667 230.28C248.254 230.12 247.787 230.04 247.267 230.04Z" fill="white"/>
<path d="M395.678 144.271C407.525 183.881 406.932 226.171 393.98 265.433C381.029 304.695 356.342 339.038 323.252 363.824L284.701 312.359C307.257 295.463 324.085 272.053 332.914 245.289C341.743 218.525 342.147 189.697 334.072 162.697L395.678 144.271Z" fill="#3A832D"/>
<path d="M328.154 311.368L321.486 310.798L323.083 308.885L329.697 309.593L325.451 306.048L326.897 304.315L331.144 307.86L329.266 301.478L330.868 299.559L332.615 306.024L339.776 306.71L338.114 308.702L331.222 307.925L335.666 311.634L334.219 313.368L329.775 309.658L331.771 316.3L330.109 318.292L328.154 311.368Z" fill="white"/>
<path d="M333.202 300.797L334.733 298.684L339.679 300.233C339.836 300.282 339.991 300.34 340.143 300.405C340.295 300.47 340.448 300.542 340.603 300.622C340.757 300.702 340.915 300.791 341.076 300.888L341.104 300.85C340.894 300.66 340.706 300.472 340.538 300.286C340.373 300.096 340.218 299.897 340.073 299.689L337.043 295.496L338.542 293.427L344.351 302.2C344.709 302.736 344.945 303.267 345.059 303.793C345.177 304.323 345.18 304.837 345.07 305.335C344.962 305.83 344.745 306.303 344.418 306.754C344.259 306.973 344.109 307.154 343.968 307.296C343.83 307.441 343.708 307.561 343.6 307.657L342.069 306.547C342.154 306.474 342.254 306.376 342.369 306.253C342.484 306.131 342.594 305.995 342.701 305.848C342.897 305.578 343.008 305.305 343.035 305.028C343.062 304.752 343.025 304.478 342.926 304.206C342.831 303.938 342.697 303.684 342.524 303.443L342.259 303.077L333.202 300.797Z" fill="white"/>
<path d="M342.215 287.477C342.746 286.648 343.496 286.186 344.467 286.09C345.44 285.99 346.55 286.338 347.795 287.136C348.629 287.67 349.253 288.24 349.669 288.846C350.08 289.45 350.295 290.057 350.312 290.668C350.329 291.279 350.16 291.86 349.806 292.413C349.579 292.768 349.34 293.045 349.089 293.243C348.834 293.439 348.579 293.581 348.323 293.671C348.063 293.758 347.81 293.816 347.564 293.843L347.496 293.949C347.694 294.026 347.891 294.115 348.086 294.215C348.282 294.316 348.467 294.422 348.643 294.534L351.61 296.434L350.325 298.441L339.732 291.658L340.777 290.026L341.912 290.354L341.971 290.262C341.858 290.004 341.779 289.728 341.733 289.432C341.687 289.137 341.7 288.827 341.772 288.502C341.843 288.17 341.99 287.828 342.215 287.477ZM343.407 289.15C343.183 289.501 343.077 289.826 343.089 290.125C343.102 290.424 343.222 290.714 343.45 290.996C343.68 291.273 344.014 291.558 344.452 291.851L344.669 291.99C345.143 292.293 345.572 292.506 345.957 292.629C346.345 292.748 346.692 292.756 346.998 292.655C347.307 292.55 347.58 292.311 347.819 291.938C348.016 291.631 348.092 291.324 348.047 291.017C348.002 290.71 347.846 290.403 347.579 290.096C347.31 289.782 346.937 289.472 346.459 289.165C345.74 288.705 345.126 288.47 344.619 288.46C344.112 288.451 343.708 288.681 343.407 289.15Z" fill="white"/>
<path d="M346.516 280.661L349.45 282.297L351.07 279.39L348.136 277.754L349.296 275.673L356.925 279.925L355.765 282.007L352.619 280.253L350.999 283.16L354.145 284.914L352.985 286.995L345.355 282.742L346.516 280.661Z" fill="white"/>
<path d="M352.105 269.594C352.611 268.537 353.229 267.836 353.959 267.493C354.689 267.15 355.524 267.203 356.464 267.652L361.714 270.165L360.995 271.666L359.725 271.569L359.698 271.625C359.872 271.986 359.992 272.326 360.058 272.647C360.124 272.967 360.127 273.3 360.065 273.646C360.004 273.992 359.868 274.383 359.659 274.82C359.437 275.285 359.147 275.66 358.791 275.946C358.437 276.227 358.026 276.386 357.559 276.422C357.086 276.456 356.566 276.336 355.998 276.064C355.161 275.664 354.686 275.076 354.573 274.3C354.454 273.522 354.655 272.535 355.175 271.34L355.787 269.953L355.442 269.788C355.028 269.59 354.674 269.553 354.377 269.677C354.081 269.801 353.841 270.055 353.657 270.441C353.475 270.821 353.35 271.22 353.283 271.639C353.215 272.057 353.176 272.488 353.165 272.934L351.373 272.951C351.352 272.427 351.402 271.876 351.523 271.299C351.645 270.716 351.839 270.148 352.105 269.594ZM357.041 270.553L356.672 271.398C356.358 272.103 356.251 272.646 356.35 273.029C356.452 273.407 356.691 273.686 357.067 273.865C357.396 274.023 357.677 274.039 357.91 273.914C358.139 273.786 358.327 273.568 358.475 273.257C358.696 272.797 358.745 272.344 358.623 271.899C358.504 271.449 358.192 271.104 357.69 270.863L357.041 270.553Z" fill="white"/>
<path d="M365.764 260.465L364.867 262.673L358.433 260.056L357.606 262.089C358.752 262.673 359.713 263.205 360.491 263.685C361.269 264.164 361.876 264.619 362.314 265.05C362.747 265.479 363.018 265.904 363.128 266.326C363.237 266.747 363.196 267.194 363.004 267.667C362.898 267.927 362.783 268.154 362.661 268.345C362.539 268.532 362.406 268.695 362.26 268.832L360.494 268.114C360.581 268.025 360.663 267.927 360.741 267.818C360.814 267.707 360.877 267.589 360.928 267.463C360.984 267.324 360.983 267.168 360.923 266.998C360.863 266.827 360.721 266.631 360.496 266.411C360.266 266.188 359.929 265.93 359.486 265.637C359.045 265.34 358.472 265 357.767 264.618C357.062 264.235 356.201 263.795 355.183 263.297L357.674 257.175L365.764 260.465Z" fill="white"/>
<path d="M369.713 249.234C369.461 250.061 369.096 250.72 368.619 251.212C368.138 251.702 367.534 252.002 366.809 252.113C366.083 252.224 365.227 252.129 364.241 251.827C363.22 251.516 362.44 251.09 361.903 250.55C361.362 250.003 361.033 249.378 360.916 248.672C360.801 247.962 360.867 247.2 361.115 246.388C361.291 245.811 361.501 245.33 361.743 244.947C361.982 244.557 362.227 244.228 362.477 243.962L364.035 245.172C363.781 245.487 363.562 245.785 363.378 246.067C363.189 246.346 363.047 246.641 362.953 246.95C362.831 247.348 362.825 247.708 362.934 248.03C363.037 248.35 363.256 248.632 363.59 248.876C363.924 249.12 364.373 249.327 364.936 249.499C365.489 249.668 365.968 249.738 366.374 249.71C366.781 249.681 367.114 249.562 367.374 249.353C367.629 249.142 367.814 248.848 367.929 248.469C368.074 247.996 368.14 247.556 368.128 247.149C368.111 246.741 368.041 246.328 367.919 245.909L369.869 246.505C369.982 246.92 370.027 247.334 370.004 247.747C369.988 248.156 369.891 248.652 369.713 249.234Z" fill="white"/>
<path d="M368.681 235.177C369.391 235.347 369.996 235.594 370.497 235.917C370.999 236.235 371.396 236.622 371.689 237.078C371.978 237.527 372.157 238.031 372.227 238.588C372.298 239.141 372.258 239.736 372.105 240.375C371.962 240.972 371.734 241.499 371.422 241.954C371.11 242.405 370.723 242.77 370.26 243.05C369.793 243.324 369.261 243.496 368.666 243.568C368.071 243.635 367.42 243.583 366.711 243.414C365.768 243.188 365.011 242.83 364.437 242.339C363.864 241.849 363.481 241.254 363.29 240.555C363.098 239.855 363.105 239.078 363.31 238.222C363.5 237.427 363.838 236.763 364.324 236.231C364.812 235.695 365.424 235.33 366.161 235.136C366.899 234.938 367.739 234.952 368.681 235.177ZM367.276 241.051C367.833 241.184 368.316 241.235 368.725 241.205C369.134 241.174 369.466 241.052 369.72 240.84C369.974 240.628 370.151 240.314 370.251 239.899C370.349 239.488 370.332 239.134 370.2 238.834C370.069 238.53 369.828 238.274 369.476 238.067C369.125 237.854 368.671 237.681 368.114 237.548C367.552 237.413 367.071 237.363 366.672 237.396C366.27 237.423 365.944 237.543 365.695 237.756C365.445 237.97 365.271 238.284 365.172 238.699C365.025 239.312 365.128 239.808 365.482 240.188C365.837 240.562 366.435 240.849 367.276 241.051Z" fill="white"/>
<path d="M368.097 233.806C366.829 233.588 365.778 233.246 364.944 232.78C364.11 232.313 363.488 231.693 363.077 230.92C362.661 230.145 362.453 229.187 362.454 228.046C362.452 227.475 362.47 226.899 362.506 226.318C362.538 225.732 362.567 225.124 362.591 224.494L364.693 224.579C364.678 224.851 364.661 225.147 364.643 225.466C364.625 225.785 364.609 226.107 364.595 226.433C364.576 226.757 364.562 227.072 364.551 227.377C364.536 227.68 364.526 227.956 364.52 228.203C364.512 228.741 364.565 229.2 364.679 229.579C364.794 229.958 365.025 230.272 365.373 230.523C365.721 230.773 366.248 230.98 366.954 231.144L366.974 231.029C366.8 230.872 366.633 230.663 366.472 230.403C366.305 230.142 366.184 229.833 366.108 229.476C366.027 229.119 366.024 228.722 366.099 228.285C366.218 227.598 366.462 227.027 366.831 226.572C367.2 226.118 367.687 225.803 368.294 225.627C368.896 225.446 369.612 225.427 370.444 225.57C371.419 225.738 372.204 226.058 372.799 226.531C373.39 226.997 373.795 227.574 374.015 228.262C374.235 228.95 374.273 229.71 374.13 230.541C374.02 231.178 373.805 231.733 373.486 232.206C373.167 232.68 372.749 233.062 372.234 233.354C371.719 233.641 371.117 233.825 370.426 233.907C369.73 233.988 368.954 233.954 368.097 233.806ZM372.252 230.075C372.309 229.742 372.287 229.439 372.186 229.168C372.081 228.891 371.873 228.654 371.563 228.458C371.249 228.256 370.808 228.106 370.238 228.008C369.55 227.889 368.986 227.911 368.546 228.073C368.102 228.229 367.832 228.581 367.737 229.131C367.68 229.464 367.708 229.791 367.822 230.112C367.931 230.427 368.074 230.703 368.25 230.939C368.421 231.175 368.572 231.343 368.702 231.445C369.107 231.515 369.508 231.552 369.904 231.557C370.295 231.556 370.657 231.51 370.99 231.419C371.322 231.329 371.6 231.176 371.822 230.96C372.045 230.74 372.188 230.445 372.252 230.075Z" fill="white"/>
<path d="M375.128 223.489L366.428 222.714L366.639 220.341L370.001 220.64L370.103 219.496C370.182 218.609 370.34 217.886 370.578 217.327C370.817 216.762 371.141 216.357 371.549 216.111C371.953 215.865 372.443 215.767 373.019 215.819C373.579 215.868 374.055 216.042 374.447 216.338C374.839 216.634 375.124 217.073 375.302 217.653C375.481 218.234 375.529 218.978 375.449 219.886L375.128 223.489ZM373.697 220.969L373.795 219.872C373.836 219.41 373.787 219.024 373.647 218.714C373.502 218.403 373.233 218.23 372.838 218.195C372.501 218.165 372.245 218.278 372.071 218.534C371.896 218.791 371.785 219.186 371.738 219.72L371.643 220.786L373.697 220.969ZM375.901 214.805L367.201 214.03L367.413 211.656L376.113 212.431L375.901 214.805Z" fill="white"/>
<path d="M369.319 202.041L369.285 204.9L376.23 204.982L376.202 207.365L369.257 207.283L369.223 210.15L367.434 210.129L367.53 202.02L369.319 202.041Z" fill="white"/>
<path d="M367.369 197.961L370.816 197.757C370.993 197.746 371.217 197.741 371.488 197.74C371.754 197.735 372.025 197.735 372.302 197.739C372.579 197.744 372.827 197.75 373.047 197.758C373.266 197.766 373.415 197.772 373.494 197.778L367.141 194.116L366.972 191.254L375.691 190.738L375.827 193.038L372.349 193.244C372.063 193.261 371.748 193.269 371.404 193.269C371.054 193.269 370.725 193.265 370.417 193.257C370.108 193.249 369.876 193.245 369.719 193.243L376.055 196.891L376.225 199.745L367.505 200.262L367.369 197.961Z" fill="white"/>
<path d="M366.37 186.173L369.79 185.695C369.965 185.67 370.188 185.647 370.458 185.625C370.723 185.599 370.993 185.577 371.27 185.559C371.546 185.541 371.794 185.528 372.013 185.518C372.233 185.508 372.382 185.503 372.461 185.503L365.836 182.359L365.439 179.52L374.089 178.309L374.408 180.592L370.958 181.074C370.674 181.114 370.36 181.148 370.017 181.175C369.669 181.202 369.34 181.225 369.032 181.241C368.724 181.258 368.492 181.272 368.336 181.283L374.943 184.414L375.339 187.246L366.689 188.456L366.37 186.173ZM361.808 180.69C362.363 180.67 362.867 180.758 363.32 180.952C363.773 181.146 364.153 181.495 364.461 181.999C364.768 182.503 364.985 183.209 365.112 184.117C365.242 185.051 365.233 185.793 365.084 186.345C364.93 186.898 364.663 187.314 364.281 187.594C363.894 187.874 363.42 188.077 362.859 188.203L362.564 186.091C363.14 185.963 363.507 185.762 363.663 185.487C363.814 185.214 363.851 184.804 363.775 184.257C363.711 183.803 363.556 183.446 363.309 183.186C363.062 182.926 362.662 182.806 362.107 182.826L361.808 180.69Z" fill="white"/>
<path d="M8.61682 144.277C-3.27451 184.041 -2.62854 226.503 10.4668 265.887C23.5622 305.271 48.4713 339.665 81.806 364.392L120.115 312.746C97.3915 295.89 80.4117 272.445 71.485 245.598C62.5583 218.751 62.118 189.806 70.2239 162.7L8.61682 144.277Z" fill="#C7322C"/>
<path d="M47.8251 268.867C48.6098 268.468 49.3745 268.202 50.119 268.069C50.8589 267.939 51.5624 267.955 52.2296 268.118C52.8945 268.277 53.5069 268.597 54.0667 269.078C54.6219 269.561 55.1106 270.218 55.5329 271.049C55.9552 271.881 56.1979 272.663 56.2609 273.396C56.3192 274.132 56.2176 274.817 55.9562 275.453C55.6924 276.083 55.2874 276.66 54.741 277.183C54.1947 277.706 53.5268 278.168 52.7375 278.569C51.6834 279.104 50.6791 279.399 49.7244 279.451C48.7627 279.502 47.8831 279.277 47.0856 278.777C46.2881 278.276 45.6074 277.471 45.0435 276.361C44.482 275.256 44.2366 274.239 44.3075 273.309C44.376 272.375 44.7153 271.536 45.3254 270.794C45.9332 270.047 46.7664 269.405 47.8251 268.867ZM51.6012 276.298C52.3117 275.937 52.8797 275.538 53.3055 275.099C53.7243 274.659 53.9762 274.177 54.0613 273.655C54.1418 273.135 54.0287 272.573 53.722 271.97C53.4106 271.357 53.0212 270.929 52.5537 270.688C52.0817 270.449 51.5466 270.373 50.9485 270.461C50.3435 270.546 49.6857 270.769 48.9753 271.13C47.9073 271.673 47.1683 272.3 46.7583 273.01C46.3483 273.721 46.3757 274.534 46.8404 275.448C47.1495 276.057 47.5413 276.483 48.0157 276.727C48.4831 276.968 49.0205 277.049 49.628 276.968C50.2284 276.885 50.8861 276.662 51.6012 276.298Z" fill="white"/>
<path d="M42.9114 260.424L44.0302 263.056L50.4218 260.338L51.3541 262.531L44.9625 265.248L46.0844 267.887L44.438 268.587L41.265 261.124L42.9114 260.424Z" fill="white"/>
<path d="M39.7929 257.176L42.8055 256.111C43.164 255.984 43.4036 255.803 43.5246 255.567C43.6388 255.328 43.6404 255.051 43.5293 254.737C43.3765 254.304 43.1859 253.922 42.9575 253.588C42.7273 253.25 42.4669 252.919 42.176 252.597L38.6184 253.854L37.8241 251.608L46.0589 248.696L46.8532 250.943L43.5829 252.099C43.8962 252.392 44.2113 252.736 44.5282 253.132C44.8433 253.523 45.1024 254.006 45.3056 254.581C45.6094 255.44 45.6331 256.203 45.3766 256.868C45.1152 257.535 44.5401 258.025 43.6513 258.339L40.5872 259.423L39.7929 257.176Z" fill="white"/>
<path d="M35.8065 245.489C35.5832 244.713 35.5409 244.002 35.6799 243.355C35.8138 242.709 36.1196 242.152 36.5973 241.684C37.0749 241.216 37.7217 240.865 38.5375 240.63L39.6486 240.31L41.207 245.723C41.8454 245.512 42.298 245.173 42.5646 244.706C42.8248 244.236 42.8619 243.678 42.6761 243.032C42.5219 242.496 42.3256 242.022 42.0873 241.608C41.8489 241.194 41.5519 240.784 41.1962 240.377L42.968 239.867C43.2928 240.223 43.5683 240.615 43.7946 241.043C44.0193 241.466 44.2247 242.001 44.4105 242.646C44.6526 243.487 44.7122 244.278 44.5892 245.018C44.4647 245.753 44.138 246.397 43.609 246.95C43.0785 247.498 42.3303 247.912 41.3643 248.19C40.3833 248.472 39.52 248.542 38.7742 248.399C38.022 248.252 37.3975 247.928 36.9007 247.426C36.3989 246.926 36.0342 246.28 35.8065 245.489ZM37.4313 245.005C37.5596 245.451 37.8088 245.78 38.1791 245.993C38.548 246.201 39.0442 246.24 39.6678 246.109L38.7427 242.896C38.4038 242.999 38.119 243.149 37.8884 243.345C37.6562 243.537 37.4964 243.772 37.409 244.052C37.3201 244.327 37.3276 244.645 37.4313 245.005Z" fill="white"/>
<path d="M34.3352 231.464L34.9688 234.253L41.7415 232.714L42.2695 235.037L35.4968 236.576L36.1322 239.372L34.3876 239.769L32.5906 231.861L34.3352 231.464Z" fill="white"/>
<path d="M40.7819 228.535L32.1564 229.91L31.7813 227.557L35.1142 227.026L34.9334 225.892C34.7932 225.012 34.7702 224.272 34.8643 223.672C34.9577 223.066 35.1725 222.594 35.5088 222.256C35.84 221.918 36.2911 221.704 36.862 221.613C37.4175 221.524 37.9215 221.576 38.3739 221.767C38.8264 221.959 39.2101 222.315 39.5249 222.834C39.8398 223.353 40.069 224.063 40.2124 224.963L40.7819 228.535ZM38.7789 226.442L38.6055 225.354C38.5325 224.896 38.3903 224.534 38.179 224.267C37.9626 224.001 37.6589 223.899 37.268 223.961C36.9337 224.014 36.7132 224.187 36.6067 224.478C36.5002 224.769 36.4892 225.18 36.5736 225.709L36.7421 226.766L38.7789 226.442ZM39.4093 219.925L30.7839 221.3L30.4088 218.947L39.0342 217.572L39.4093 219.925Z" fill="white"/>
<path d="M317.624 367.891C283.86 391.415 243.717 404.066 202.566 404.151C161.415 404.236 121.22 391.751 87.3593 368.367L123.9 315.456C146.982 331.396 174.382 339.907 202.433 339.849C230.484 339.791 257.849 331.167 280.864 315.131L317.624 367.891Z" fill="#2AADDB"/>
<path d="M165.443 340.855L160.115 347.883C159.636 348.518 159.16 349.049 158.688 349.477C158.217 349.899 157.68 350.183 157.078 350.327C156.476 350.467 155.74 350.432 154.869 350.223C154.596 350.157 154.304 350.066 153.995 349.948C153.684 349.836 153.402 349.71 153.146 349.568L153.632 347.547C153.862 347.704 154.118 347.841 154.401 347.957C154.69 348.069 154.966 348.157 155.23 348.22C155.574 348.303 155.866 348.312 156.107 348.246C156.348 348.181 156.555 348.065 156.729 347.897C156.903 347.73 157.062 347.536 157.207 347.313L155.279 338.414L157.77 339.012L158.689 344.319C158.711 344.431 158.736 344.582 158.765 344.771C158.801 344.956 158.833 345.146 158.862 345.34C158.896 345.531 158.918 345.697 158.927 345.838L159.011 345.858C159.081 345.741 159.171 345.602 159.28 345.441C159.394 345.275 159.512 345.108 159.633 344.939C159.755 344.765 159.865 344.609 159.962 344.472L163.012 340.271L165.443 340.855Z" fill="#222222"/>
<path d="M174.338 345.217L173.097 352.099L174.358 352.326L173.493 357.124L171.386 356.744L171.942 353.661L166.16 352.618L165.604 355.701L163.498 355.322L164.363 350.524L165.085 350.654C165.569 350.143 166.006 349.54 166.396 348.843C166.792 348.146 167.144 347.398 167.452 346.596C167.767 345.79 168.037 344.965 168.264 344.122L174.338 345.217ZM171.675 346.555L169.914 346.238C169.718 346.859 169.502 347.455 169.266 348.026C169.037 348.594 168.781 349.135 168.497 349.65C168.215 350.16 167.895 350.642 167.538 351.096L170.752 351.676L171.675 346.555Z" fill="#222222"/>
<path d="M180.791 345.919C181.954 346.062 182.815 346.425 183.373 347.008C183.931 347.591 184.146 348.399 184.019 349.433L183.308 355.21L181.657 355.007L181.344 353.772L181.282 353.764C180.996 354.044 180.711 354.266 180.429 354.431C180.146 354.595 179.831 354.703 179.484 354.755C179.136 354.807 178.722 354.803 178.241 354.744C177.73 354.681 177.282 354.526 176.897 354.28C176.518 354.034 176.237 353.695 176.054 353.263C175.872 352.826 175.819 352.295 175.896 351.669C176.009 350.749 176.416 350.111 177.115 349.757C177.815 349.397 178.815 349.273 180.113 349.385L181.623 349.524L181.669 349.144C181.725 348.689 181.648 348.341 181.436 348.1C181.224 347.859 180.906 347.712 180.482 347.66C180.064 347.608 179.645 347.617 179.228 347.687C178.81 347.756 178.388 347.856 177.963 347.988L177.376 346.294C177.866 346.107 178.404 345.979 178.99 345.91C179.581 345.841 180.181 345.844 180.791 345.919ZM181.453 350.904L180.534 350.823C179.767 350.749 179.217 350.821 178.886 351.037C178.56 351.254 178.372 351.57 178.321 351.983C178.277 352.345 178.351 352.616 178.544 352.798C178.737 352.974 179.005 353.083 179.346 353.124C179.852 353.187 180.297 353.089 180.681 352.832C181.069 352.576 181.297 352.171 181.365 351.618L181.453 350.904Z" fill="#222222"/>
<path d="M193.761 356.001L191.383 355.845L191.837 348.914L189.646 348.771C189.453 350.042 189.252 351.123 189.042 352.012C188.833 352.901 188.592 353.621 188.321 354.172C188.051 354.718 187.733 355.11 187.368 355.347C187.002 355.584 186.565 355.686 186.056 355.653C185.775 355.634 185.525 355.597 185.304 355.541C185.088 355.485 184.892 355.409 184.716 355.314L184.84 353.412C184.952 353.466 185.071 353.513 185.199 353.553C185.327 353.587 185.459 353.609 185.594 353.618C185.745 353.628 185.892 353.577 186.035 353.467C186.178 353.356 186.318 353.159 186.457 352.876C186.596 352.588 186.734 352.187 186.872 351.674C187.015 351.161 187.157 350.51 187.298 349.721C187.438 348.932 187.584 347.976 187.736 346.853L194.331 347.285L193.761 356.001Z" fill="#222222"/>
<path d="M201.632 347.259C202.439 347.261 203.134 347.418 203.717 347.731C204.3 348.039 204.75 348.488 205.066 349.077C205.383 349.666 205.541 350.385 205.54 351.234L205.538 352.39L199.905 352.382C199.931 353.054 200.13 353.583 200.505 353.969C200.884 354.349 201.41 354.54 202.082 354.541C202.639 354.542 203.15 354.486 203.614 354.372C204.077 354.258 204.554 354.086 205.044 353.858L205.041 355.702C204.609 355.915 204.155 356.07 203.681 356.169C203.212 356.267 202.642 356.316 201.97 356.315C201.095 356.313 200.319 356.151 199.643 355.827C198.971 355.503 198.443 355.01 198.059 354.348C197.68 353.686 197.491 352.852 197.492 351.847C197.494 350.826 197.667 349.978 198.011 349.301C198.361 348.619 198.846 348.11 199.467 347.772C200.087 347.429 200.809 347.258 201.632 347.259ZM201.645 348.955C201.181 348.954 200.796 349.102 200.488 349.398C200.185 349.695 200.01 350.161 199.962 350.796L203.306 350.801C203.301 350.447 203.237 350.131 203.112 349.855C202.993 349.579 202.811 349.36 202.566 349.198C202.327 349.036 202.02 348.955 201.645 348.955Z" fill="#222222"/>
<path d="M210.242 347.214L210.455 350.567L213.777 350.355L213.563 347.003L215.941 346.851L216.497 355.568L214.119 355.719L213.89 352.125L210.568 352.337L210.797 355.931L208.419 356.082L207.864 347.366L210.242 347.214Z" fill="#222222"/>
<path d="M220.435 346.344L220.88 349.674L224.179 349.233L223.734 345.903L226.096 345.588L227.253 354.245L224.891 354.561L224.414 350.991L221.115 351.432L221.592 355.002L219.23 355.317L218.074 346.66L220.435 346.344Z" fill="#222222"/>
<path d="M236.98 347.901C237.127 348.615 237.16 349.268 237.079 349.858C237.003 350.448 236.82 350.972 236.532 351.43C236.247 351.882 235.866 352.257 235.391 352.557C234.92 352.855 234.364 353.071 233.721 353.202C233.119 353.326 232.545 353.342 232.001 353.252C231.461 353.161 230.966 352.964 230.516 352.663C230.07 352.356 229.689 351.948 229.372 351.438C229.06 350.928 228.831 350.316 228.684 349.602C228.49 348.653 228.493 347.814 228.695 347.087C228.897 346.36 229.274 345.762 229.826 345.292C230.379 344.823 231.086 344.5 231.948 344.323C232.749 344.159 233.494 344.184 234.181 344.399C234.874 344.614 235.463 345.014 235.95 345.6C236.442 346.185 236.786 346.952 236.98 347.901ZM231.064 349.114C231.179 349.675 231.337 350.134 231.538 350.492C231.739 350.849 231.99 351.098 232.29 351.239C232.59 351.379 232.949 351.407 233.367 351.321C233.78 351.236 234.095 351.071 234.31 350.825C234.531 350.577 234.66 350.251 234.699 349.844C234.743 349.436 234.708 348.951 234.592 348.39C234.476 347.824 234.319 347.367 234.12 347.02C233.925 346.666 233.679 346.422 233.38 346.286C233.081 346.151 232.722 346.126 232.304 346.212C231.686 346.338 231.281 346.642 231.087 347.123C230.898 347.603 230.891 348.267 231.064 349.114Z" fill="#222222"/>
<path d="M241.539 342.045C242.317 341.829 243.029 341.793 243.674 341.938C244.319 342.078 244.873 342.389 245.336 342.871C245.8 343.353 246.145 344.003 246.373 344.821L246.682 345.935L241.255 347.443C241.46 348.083 241.795 348.539 242.259 348.81C242.728 349.074 243.285 349.117 243.933 348.937C244.47 348.788 244.946 348.596 245.362 348.361C245.778 348.127 246.191 347.833 246.601 347.482L247.095 349.258C246.736 349.58 246.341 349.851 245.911 350.074C245.486 350.294 244.949 350.495 244.302 350.675C243.459 350.909 242.668 350.961 241.929 350.831C241.195 350.7 240.554 350.368 240.006 349.833C239.462 349.298 239.056 348.546 238.787 347.577C238.514 346.594 238.452 345.73 238.602 344.985C238.755 344.235 239.085 343.613 239.592 343.121C240.097 342.624 240.746 342.265 241.539 342.045ZM242.008 343.674C241.561 343.798 241.23 344.044 241.013 344.413C240.802 344.78 240.758 345.275 240.883 345.9L244.105 345.005C244.005 344.665 243.858 344.379 243.664 344.146C243.474 343.913 243.24 343.751 242.961 343.661C242.687 343.569 242.369 343.574 242.008 343.674Z" fill="#222222"/>
<path d="M151.358 360.661L153.88 361.331L154.213 366.503C154.223 366.668 154.225 366.833 154.219 366.998C154.213 367.163 154.2 367.332 154.181 367.505C154.162 367.678 154.136 367.857 154.103 368.042L154.149 368.054C154.251 367.79 154.359 367.547 154.472 367.324C154.59 367.102 154.72 366.886 154.862 366.676L157.686 362.341L160.155 362.996L154.056 371.57C153.685 372.097 153.274 372.508 152.824 372.803C152.372 373.103 151.894 373.292 151.389 373.368C150.888 373.445 150.369 373.412 149.83 373.269C149.569 373.2 149.346 373.125 149.163 373.044C148.978 372.968 148.822 372.897 148.694 372.83L149.179 371.003C149.278 371.056 149.405 371.114 149.561 371.177C149.717 371.24 149.883 371.295 150.059 371.342C150.381 371.427 150.676 371.433 150.944 371.358C151.211 371.284 151.454 371.152 151.672 370.961C151.888 370.776 152.077 370.56 152.24 370.312L152.486 369.933L151.358 360.661Z" fill="#222222"/>
<path d="M169.812 365.058L168.023 373.608L165.683 373.118L167.105 366.32L164.008 365.672L162.586 372.47L160.254 371.982L162.042 363.433L169.812 365.058Z" fill="#222222"/>
<path d="M177.349 366.112C178.322 366.259 179.05 366.755 179.534 367.602C180.022 368.45 180.156 369.606 179.936 371.068C179.789 372.047 179.523 372.849 179.139 373.476C178.755 374.098 178.288 374.541 177.738 374.806C177.187 375.071 176.587 375.154 175.938 375.056C175.521 374.993 175.171 374.888 174.887 374.74C174.605 374.587 174.371 374.412 174.184 374.215C173.999 374.014 173.843 373.806 173.717 373.592L173.594 373.573C173.604 373.786 173.603 374.001 173.591 374.221C173.579 374.44 173.557 374.653 173.526 374.859L173.002 378.343L170.645 377.988L172.519 365.55L174.435 365.839L174.598 367.009L174.706 367.025C174.896 366.817 175.116 366.632 175.367 366.469C175.618 366.307 175.906 366.192 176.233 366.126C176.565 366.054 176.937 366.05 177.349 366.112ZM176.308 367.883C175.896 367.821 175.556 367.857 175.288 367.99C175.02 368.124 174.804 368.352 174.64 368.675C174.48 368.998 174.356 369.419 174.268 369.938L174.229 370.193C174.146 370.749 174.126 371.228 174.171 371.63C174.221 372.032 174.354 372.353 174.571 372.591C174.793 372.83 175.123 372.982 175.561 373.048C175.922 373.102 176.233 373.047 176.495 372.881C176.757 372.715 176.974 372.447 177.145 372.078C177.323 371.704 177.454 371.237 177.538 370.675C177.665 369.831 177.63 369.175 177.432 368.708C177.233 368.241 176.859 367.966 176.308 367.883Z" fill="#222222"/>
<path d="M186.739 367.214C187.906 367.321 188.777 367.657 189.353 368.223C189.929 368.788 190.169 369.59 190.074 370.627L189.542 376.423L187.885 376.271L187.534 375.046L187.472 375.04C187.194 375.329 186.917 375.56 186.64 375.733C186.362 375.906 186.051 376.024 185.705 376.086C185.359 376.149 184.945 376.158 184.463 376.114C183.949 376.067 183.497 375.926 183.105 375.691C182.719 375.457 182.427 375.127 182.231 374.701C182.035 374.27 181.966 373.74 182.024 373.113C182.108 372.189 182.495 371.54 183.183 371.164C183.872 370.782 184.867 370.628 186.168 370.7L187.681 370.792L187.716 370.411C187.758 369.954 187.67 369.609 187.451 369.374C187.232 369.14 186.909 369.003 186.484 368.964C186.064 368.925 185.646 368.947 185.231 369.029C184.815 369.111 184.397 369.225 183.976 369.369L183.337 367.694C183.821 367.493 184.355 367.348 184.938 367.261C185.526 367.173 186.127 367.158 186.739 367.214ZM187.554 372.177L186.633 372.123C185.864 372.074 185.317 372.162 184.993 372.389C184.674 372.616 184.496 372.937 184.457 373.352C184.424 373.715 184.507 373.984 184.705 374.159C184.904 374.329 185.174 374.429 185.517 374.461C186.025 374.507 186.467 374.396 186.842 374.127C187.222 373.859 187.438 373.447 187.489 372.892L187.554 372.177Z" fill="#222222"/>
<path d="M200.491 370.438C200.476 370.907 200.315 371.303 200.007 371.627C199.705 371.945 199.266 372.142 198.691 372.217L198.689 372.279C199.29 372.372 199.77 372.598 200.128 372.959C200.487 373.315 200.657 373.755 200.64 374.281C200.624 374.781 200.479 375.224 200.206 375.612C199.933 375.994 199.509 376.29 198.935 376.501C198.36 376.706 197.614 376.794 196.698 376.764L192.544 376.629L192.828 367.9L196.982 368.034C197.664 368.056 198.273 368.149 198.809 368.312C199.346 368.471 199.765 368.721 200.067 369.065C200.368 369.408 200.51 369.866 200.491 370.438ZM198.177 374.076C198.188 373.733 198.061 373.481 197.795 373.321C197.534 373.156 197.141 373.066 196.616 373.049L195.046 372.998L194.979 375.059L196.596 375.111C197.043 375.126 197.416 375.055 197.713 374.898C198.009 374.74 198.164 374.467 198.177 374.076ZM198.073 370.548C198.081 370.277 197.981 370.073 197.772 369.936C197.563 369.799 197.25 369.724 196.833 369.71L195.155 369.656L195.099 371.381L196.504 371.427C197.009 371.443 197.394 371.383 197.659 371.245C197.924 371.108 198.062 370.876 198.073 370.548Z" fill="#222222"/>
<path d="M211.58 376.637L209.199 376.718L208.964 369.777L206.77 369.851C206.704 371.135 206.611 372.23 206.49 373.136C206.37 374.041 206.202 374.782 205.987 375.357C205.772 375.927 205.494 376.348 205.154 376.62C204.814 376.893 204.389 377.037 203.879 377.055C203.598 377.064 203.345 377.052 203.12 377.018C202.9 376.983 202.697 376.928 202.512 376.851L202.448 374.946C202.564 374.988 202.687 375.023 202.819 375.05C202.95 375.072 203.083 375.08 203.218 375.076C203.369 375.071 203.51 375.006 203.641 374.882C203.773 374.757 203.893 374.547 204.003 374.252C204.113 373.951 204.211 373.539 204.297 373.015C204.389 372.49 204.466 371.829 204.527 371.029C204.589 370.23 204.639 369.264 204.679 368.132L211.285 367.908L211.58 376.637Z" fill="#222222"/>
<path d="M218.045 367.172C218.849 367.09 219.556 367.176 220.168 367.428C220.779 367.674 221.273 368.075 221.648 368.628C222.024 369.181 222.255 369.88 222.34 370.725L222.457 371.875L216.853 372.444C216.947 373.11 217.2 373.616 217.612 373.961C218.029 374.301 218.571 374.437 219.24 374.369C219.794 374.313 220.296 374.205 220.746 374.044C221.195 373.883 221.652 373.664 222.116 373.386L222.302 375.221C221.894 375.477 221.459 375.678 220.997 375.824C220.541 375.97 219.978 376.077 219.31 376.145C218.439 376.233 217.651 376.151 216.945 375.898C216.244 375.645 215.668 375.208 215.218 374.589C214.773 373.97 214.499 373.16 214.398 372.16C214.295 371.144 214.38 370.282 214.654 369.574C214.932 368.86 215.362 368.303 215.945 367.904C216.526 367.499 217.227 367.255 218.045 367.172ZM218.232 368.857C217.771 368.904 217.403 369.09 217.127 369.417C216.856 369.743 216.73 370.224 216.747 370.861L220.074 370.523C220.033 370.171 219.937 369.865 219.784 369.603C219.637 369.34 219.434 369.141 219.174 369.005C218.919 368.868 218.605 368.819 218.232 368.857Z" fill="#222222"/>
<path d="M226.062 366.327L226.626 369.638L229.907 369.079L229.342 365.767L231.691 365.367L233.16 373.977L230.811 374.377L230.205 370.827L226.925 371.387L227.53 374.937L225.181 375.337L223.713 366.727L226.062 366.327Z" fill="#222222"/>
<path d="M236.708 364.268L237.555 367.615C237.598 367.787 237.645 368.006 237.697 368.272C237.752 368.532 237.803 368.799 237.85 369.072C237.898 369.344 237.938 369.589 237.972 369.806C238.005 370.024 238.027 370.171 238.036 370.25L240.441 363.323L243.221 362.62L245.363 371.087L243.129 371.653L242.274 368.275C242.204 367.997 242.137 367.689 242.073 367.35C242.007 367.007 241.95 366.683 241.9 366.379C241.849 366.075 241.81 365.845 241.782 365.691L239.388 372.599L236.616 373.3L234.473 364.833L236.708 364.268Z" fill="#222222"/>
<path d="M249.714 360.366C250.479 360.107 251.188 360.032 251.841 360.141C252.492 360.245 253.062 360.525 253.552 360.98C254.041 361.436 254.422 362.066 254.695 362.87L255.065 363.965L249.73 365.771C249.97 366.399 250.33 366.836 250.808 367.081C251.29 367.319 251.85 367.33 252.486 367.115C253.014 366.936 253.479 366.718 253.881 366.461C254.284 366.204 254.68 365.888 255.07 365.514L255.661 367.26C255.32 367.601 254.941 367.895 254.524 368.14C254.112 368.384 253.588 368.614 252.951 368.83C252.122 369.11 251.336 369.206 250.591 369.117C249.851 369.027 249.192 368.73 248.615 368.227C248.043 367.723 247.595 366.994 247.273 366.042C246.946 365.075 246.836 364.216 246.945 363.465C247.056 362.706 247.352 362.068 247.83 361.548C248.307 361.024 248.935 360.63 249.714 360.366ZM250.273 361.967C249.834 362.115 249.516 362.38 249.321 362.759C249.13 363.137 249.114 363.635 249.273 364.252L252.44 363.179C252.322 362.846 252.159 362.568 251.952 362.347C251.75 362.124 251.507 361.975 251.224 361.9C250.945 361.824 250.628 361.846 250.273 361.967Z" fill="#222222"/>
<path d="M160.635 383.371L159.882 386.645L163.126 387.39L163.878 384.116L166.201 384.65L164.244 393.163L161.921 392.629L162.728 389.119L159.485 388.373L158.678 391.883L156.356 391.349L158.313 382.837L160.635 383.371Z" fill="#222222"/>
<path d="M172.889 385.714C174.044 385.913 174.886 386.317 175.415 386.926C175.944 387.535 176.12 388.353 175.944 389.38L174.955 395.116L173.316 394.833L173.063 393.585L173.001 393.574C172.702 393.839 172.407 394.048 172.117 394.198C171.827 394.349 171.507 394.442 171.157 394.477C170.808 394.512 170.394 394.488 169.917 394.406C169.409 394.319 168.969 394.142 168.597 393.877C168.23 393.613 167.966 393.261 167.804 392.821C167.643 392.376 167.615 391.843 167.722 391.222C167.88 390.308 168.317 389.691 169.032 389.37C169.749 389.045 170.753 388.969 172.044 389.144L173.546 389.355L173.611 388.978C173.689 388.526 173.628 388.175 173.428 387.924C173.228 387.673 172.918 387.511 172.497 387.438C172.081 387.367 171.663 387.355 171.242 387.404C170.821 387.454 170.395 387.533 169.964 387.644L169.46 385.924C169.958 385.762 170.501 385.66 171.09 385.618C171.684 385.578 172.283 385.61 172.889 385.714ZM173.31 390.726L172.396 390.6C171.633 390.489 171.081 390.534 170.74 390.735C170.404 390.936 170.2 391.242 170.13 391.652C170.068 392.012 170.129 392.286 170.313 392.477C170.497 392.662 170.759 392.783 171.098 392.842C171.601 392.928 172.05 392.852 172.445 392.614C172.846 392.376 173.093 391.983 173.188 391.434L173.31 390.726Z" fill="#222222"/>
<path d="M185.04 387.615L184.821 389.391L181.2 388.946L180.352 395.839L177.987 395.548L179.054 386.879L185.04 387.615Z" fill="#222222"/>
<path d="M192.301 388.03C193.283 388.098 194.049 388.534 194.6 389.339C195.155 390.144 195.383 391.285 195.282 392.761C195.214 393.748 195.014 394.569 194.682 395.225C194.35 395.876 193.921 396.356 193.393 396.664C192.866 396.973 192.275 397.104 191.62 397.06C191.199 397.031 190.842 396.954 190.547 396.83C190.253 396.7 190.006 396.545 189.804 396.364C189.603 396.178 189.431 395.983 189.288 395.78L189.163 395.772C189.191 395.982 189.207 396.198 189.213 396.417C189.219 396.637 189.215 396.851 189.2 397.058L188.96 400.574L186.583 400.411L187.441 387.862L189.374 387.994L189.632 389.148L189.741 389.155C189.913 388.932 190.118 388.729 190.355 388.547C190.592 388.365 190.87 388.227 191.189 388.134C191.515 388.037 191.885 388.002 192.301 388.03ZM191.407 389.88C190.991 389.851 190.655 389.915 190.399 390.069C190.143 390.224 189.946 390.469 189.809 390.804C189.676 391.14 189.587 391.569 189.54 392.093L189.523 392.351C189.484 392.912 189.504 393.391 189.581 393.788C189.663 394.185 189.822 394.493 190.058 394.713C190.299 394.933 190.64 395.058 191.082 395.089C191.445 395.113 191.751 395.033 191.999 394.846C192.246 394.659 192.441 394.375 192.582 393.993C192.728 393.606 192.821 393.13 192.86 392.563C192.918 391.711 192.829 391.06 192.594 390.611C192.358 390.162 191.963 389.918 191.407 389.88Z" fill="#222222"/>
<path d="M196.718 388.477L199.327 388.497L200.937 393.424C200.988 393.58 201.031 393.739 201.067 393.901C201.102 394.063 201.132 394.23 201.156 394.402C201.181 394.574 201.201 394.754 201.215 394.941L201.262 394.942C201.295 394.661 201.339 394.398 201.393 394.154C201.452 393.909 201.524 393.668 201.609 393.429L203.264 388.527L205.819 388.547L202.048 398.37C201.819 398.972 201.524 399.473 201.161 399.871C200.799 400.274 200.382 400.576 199.912 400.775C199.447 400.975 198.936 401.072 198.378 401.068C198.108 401.066 197.873 401.049 197.676 401.016C197.478 400.988 197.309 400.958 197.169 400.926L197.183 399.035C197.292 399.062 197.43 399.087 197.597 399.109C197.763 399.131 197.938 399.143 198.12 399.144C198.453 399.147 198.74 399.079 198.981 398.94C199.221 398.801 199.423 398.613 199.587 398.374C199.75 398.141 199.88 397.884 199.975 397.604L200.119 397.175L196.718 388.477Z" fill="#222222"/>
<path d="M210.507 388.165C211.136 388.133 211.728 388.187 212.283 388.326C212.837 388.459 213.292 388.689 213.647 389.016C214.002 389.337 214.193 389.765 214.22 390.301C214.247 390.826 214.109 391.253 213.808 391.581C213.506 391.904 213.096 392.146 212.577 392.308L212.581 392.386C212.955 392.456 213.294 392.559 213.598 392.695C213.907 392.83 214.157 393.026 214.347 393.283C214.537 393.539 214.643 393.883 214.665 394.315C214.689 394.799 214.558 395.254 214.272 395.68C213.986 396.101 213.531 396.453 212.909 396.734C212.292 397.016 211.49 397.181 210.502 397.231C210.033 397.255 209.59 397.256 209.172 397.236C208.759 397.215 208.379 397.174 208.032 397.113C207.684 397.047 207.38 396.963 207.119 396.862L207.02 394.895C207.388 395.044 207.837 395.175 208.37 395.289C208.908 395.403 209.476 395.445 210.074 395.414C210.505 395.393 210.894 395.342 211.239 395.262C211.59 395.182 211.863 395.064 212.059 394.908C212.259 394.746 212.353 394.541 212.34 394.291C212.329 394.057 212.228 393.869 212.038 393.728C211.854 393.58 211.575 393.48 211.202 393.426C210.834 393.366 210.369 393.35 209.807 393.378L208.886 393.425L208.803 391.778L209.677 391.734C210.468 391.695 211.076 391.599 211.501 391.447C211.926 391.295 212.13 391.045 212.113 390.697C212.098 390.416 211.95 390.212 211.667 390.085C211.384 389.959 210.926 389.912 210.291 389.943C209.88 389.964 209.43 390.036 208.941 390.16C208.451 390.279 207.995 390.437 207.572 390.636L206.787 389.009C207.281 388.791 207.82 388.608 208.402 388.458C208.988 388.304 209.69 388.206 210.507 388.165Z" fill="#222222"/>
<path d="M222.043 387.343L224.652 387.05L221.679 391.597L225.928 395.696L223.241 395.998L219.2 391.993L219.693 396.395L217.325 396.661L216.352 387.981L218.72 387.715L219.193 391.931L222.043 387.343Z" fill="#222222"/>
<path d="M234.19 389.791C234.318 390.508 234.333 391.162 234.237 391.75C234.146 392.338 233.95 392.857 233.65 393.307C233.353 393.751 232.963 394.117 232.48 394.404C232.002 394.69 231.44 394.891 230.794 395.006C230.189 395.114 229.615 395.115 229.073 395.011C228.536 394.905 228.046 394.696 227.604 394.384C227.166 394.065 226.796 393.647 226.492 393.129C226.193 392.611 225.98 391.993 225.852 391.275C225.682 390.322 225.708 389.484 225.928 388.762C226.149 388.04 226.542 387.452 227.106 386.997C227.67 386.542 228.386 386.237 229.252 386.083C230.057 385.94 230.801 385.985 231.482 386.218C232.169 386.45 232.748 386.865 233.22 387.464C233.697 388.061 234.02 388.837 234.19 389.791ZM228.244 390.849C228.345 391.413 228.491 391.877 228.682 392.239C228.874 392.602 229.118 392.857 229.414 393.006C229.71 393.154 230.069 393.191 230.489 393.116C230.904 393.042 231.223 392.885 231.445 392.644C231.671 392.403 231.809 392.079 231.859 391.674C231.913 391.267 231.891 390.782 231.79 390.218C231.689 389.649 231.543 389.188 231.353 388.836C231.168 388.477 230.928 388.226 230.632 388.083C230.337 387.94 229.979 387.906 229.559 387.981C228.938 388.091 228.525 388.384 228.319 388.86C228.117 389.335 228.093 389.998 228.244 390.849Z" fill="#222222"/>
<path d="M237.707 384.527L238.567 387.872C238.611 388.043 238.66 388.262 238.712 388.528C238.768 388.788 238.82 389.054 238.869 389.327C238.917 389.599 238.959 389.844 238.993 390.061C239.027 390.278 239.049 390.426 239.059 390.504L241.438 383.568L244.215 382.854L246.39 391.313L244.157 391.887L243.29 388.513C243.218 388.235 243.15 387.928 243.085 387.589C243.018 387.246 242.959 386.923 242.908 386.619C242.856 386.314 242.816 386.085 242.787 385.931L240.42 392.848L237.65 393.56L235.475 385.101L237.707 384.527ZM242.643 379.378C242.725 379.927 242.695 380.438 242.553 380.91C242.411 381.382 242.107 381.799 241.64 382.161C241.174 382.523 240.497 382.818 239.609 383.046C238.696 383.281 237.957 383.355 237.392 383.269C236.826 383.178 236.382 382.959 236.061 382.611C235.739 382.258 235.484 381.81 235.296 381.267L237.362 380.736C237.554 381.294 237.795 381.636 238.085 381.76C238.374 381.879 238.786 381.87 239.32 381.733C239.764 381.619 240.101 381.425 240.332 381.15C240.563 380.876 240.637 380.464 240.555 379.915L242.643 379.378Z" fill="#222222"/>
<path d="M199.851 2.01156C157.966 2.45727 117.257 15.9123 83.3563 40.5141C49.456 65.116 24.0419 99.6479 10.6319 139.33L71.4121 159.87C80.563 132.791 97.9053 109.227 121.039 92.4387C144.172 75.6507 171.952 66.4691 200.533 66.1649L199.851 2.01156Z" fill="#612B66"/>
<path d="M56.4871 107.647C56.2388 108.039 56.0954 108.435 56.0568 108.836C56.0166 109.23 56.0739 109.621 56.2287 110.009C56.3862 110.393 56.6338 110.766 56.9715 111.128C57.3092 111.49 57.7309 111.832 58.2367 112.153C58.9184 112.585 59.5541 112.871 60.1439 113.011C60.7321 113.143 61.2668 113.113 61.7478 112.918C62.2245 112.721 62.6414 112.341 62.9985 111.778C63.2468 111.386 63.4511 110.967 63.6115 110.52C63.7746 110.068 63.9213 109.56 64.0515 108.995L65.7667 110.083C65.672 110.621 65.531 111.121 65.3435 111.582C65.1604 112.045 64.9056 112.534 64.5792 113.049C63.9487 114.043 63.2252 114.731 62.4089 115.114C61.5909 115.489 60.7149 115.597 59.7807 115.436C58.8421 115.272 57.8781 114.876 56.8885 114.249C56.1584 113.786 55.5527 113.263 55.0713 112.68C54.5899 112.097 54.2485 111.473 54.047 110.809C53.8455 110.144 53.8023 109.454 53.9176 108.737C54.0328 108.021 54.3219 107.298 54.7851 106.568C55.0892 106.088 55.4548 105.648 55.8821 105.247C56.3077 104.838 56.7656 104.481 57.2557 104.175L58.4997 105.889C58.0994 106.141 57.7197 106.409 57.3606 106.693C57.0015 106.978 56.7103 107.296 56.4871 107.647Z" fill="white"/>
<path d="M63.3465 105.055C62.3089 104.295 61.5206 103.52 60.9816 102.732C60.4426 101.943 60.1615 101.11 60.1383 100.234C60.1108 99.3555 60.3519 98.4054 60.8614 97.3841C61.1141 96.8719 61.3861 96.3642 61.6775 95.8609C61.9677 95.3504 62.2639 94.8184 62.5661 94.265L64.4102 95.2775C64.2753 95.5144 64.1287 95.7718 63.9703 96.0496C63.8119 96.3274 63.6541 96.6089 63.4968 96.894C63.3353 97.176 63.1821 97.4511 63.0372 97.7194C62.888 97.9846 62.7558 98.2267 62.6405 98.4457C62.3937 98.9235 62.237 99.3575 62.1705 99.7479C62.104 100.138 62.1707 100.523 62.3708 100.902C62.5708 101.281 62.9505 101.701 63.5098 102.163L63.5791 102.068C63.4933 101.851 63.4363 101.589 63.4079 101.284C63.3753 100.976 63.4045 100.646 63.4954 100.293C63.5821 99.9364 63.7562 99.5798 64.0179 99.2227C64.4305 98.6598 64.9031 98.2571 65.4359 98.0147C65.9687 97.7724 66.5456 97.7077 67.1667 97.8206C67.7866 97.9262 68.4369 98.2284 69.1174 98.7272C69.9156 99.3121 70.4758 99.9487 70.7981 100.637C71.1192 101.318 71.2248 102.015 71.115 102.729C71.0052 103.443 70.7009 104.14 70.2021 104.82C69.8204 105.341 69.381 105.742 68.8841 106.024C68.3872 106.306 67.8431 106.462 67.2517 106.494C66.6635 106.521 66.042 106.417 65.3872 106.183C64.7283 105.945 64.0481 105.57 63.3465 105.055ZM68.7288 103.566C68.9289 103.293 69.044 103.013 69.0742 102.725C69.1032 102.43 69.0228 102.125 68.8328 101.812C68.6418 101.491 68.3131 101.16 67.8468 100.818C67.2838 100.405 66.7692 100.174 66.303 100.122C65.8357 100.064 65.4373 100.26 65.1079 100.709C64.9078 100.982 64.7872 101.288 64.7461 101.626C64.704 101.956 64.709 102.267 64.7611 102.557C64.8091 102.844 64.8688 103.062 64.9403 103.211C65.2721 103.454 65.6141 103.666 65.9661 103.847C66.317 104.02 66.6616 104.14 66.9998 104.207C67.3381 104.274 67.6546 104.261 67.9495 104.167C68.2473 104.069 68.5071 103.869 68.7288 103.566Z" fill="white"/>
<path d="M75.2802 91.1605C75.8404 91.6273 76.2732 92.1168 76.5786 92.6289C76.8874 93.137 77.0717 93.6602 77.1318 94.1984C77.1911 94.7292 77.1284 95.26 76.9437 95.7908C76.7623 96.3176 76.4616 96.8331 76.0415 97.3373C75.648 97.8094 75.2102 98.1802 74.7281 98.4496C74.2493 98.715 73.7401 98.8704 73.2007 98.9157C72.6605 98.9537 72.1077 98.8727 71.5422 98.6727C70.98 98.4686 70.4189 98.1332 69.8587 97.6664C69.1145 97.0462 68.5943 96.389 68.2982 95.6948C68.0021 95.0006 67.9234 94.2978 68.0622 93.5862C68.2009 92.8747 68.552 92.1808 69.1154 91.5046C69.6389 90.8764 70.2364 90.432 70.908 90.1712C71.5828 89.9065 72.2933 89.8511 73.0396 90.0052C73.7891 90.1552 74.536 90.5403 75.2802 91.1605ZM71.4141 95.7998C71.8543 96.1666 72.2644 96.427 72.6445 96.5811C73.0246 96.7351 73.3757 96.7734 73.6978 96.6961C74.0199 96.6187 74.3176 96.416 74.591 96.0879C74.8611 95.7638 75.0035 95.4384 75.0182 95.1116C75.0362 94.7809 74.9335 94.4444 74.7101 94.1023C74.49 93.7562 74.1599 93.3998 73.7198 93.033C73.2756 92.6629 72.8675 92.4042 72.4954 92.2568C72.1226 92.1021 71.7772 92.0651 71.4591 92.1458C71.141 92.2265 70.8453 92.4309 70.5719 92.759C70.1684 93.2431 70.0411 93.7336 70.1898 94.2304C70.3418 94.7232 70.7499 95.2464 71.4141 95.7998Z" fill="white"/>
<path d="M76.3858 83.3406C77.0633 82.6265 77.8877 82.3138 78.8589 82.4024C79.8338 82.4873 80.8577 83.0388 81.9308 84.0569C82.6487 84.738 83.1547 85.4154 83.4487 86.0893C83.7389 86.7595 83.8349 87.3962 83.7365 87.9993C83.6382 88.6024 83.3632 89.142 82.9115 89.618C82.6211 89.9241 82.3342 90.1508 82.0507 90.2983C81.7635 90.4422 81.4859 90.5342 81.218 90.5744C80.9464 90.611 80.6868 90.6197 80.4395 90.6004L80.3535 90.6911C80.5333 90.8042 80.7097 90.9286 80.8827 91.064C81.0558 91.1994 81.2179 91.3389 81.369 91.4823L83.9251 93.9073L82.285 95.636L73.1602 86.9788L74.4938 85.5732L75.5468 86.1092L75.6221 86.0298C75.5596 85.7552 75.5336 85.4685 75.5442 85.1698C75.5547 84.8711 75.626 84.569 75.758 84.2634C75.8897 83.9505 76.099 83.6429 76.3858 83.3406ZM77.2417 85.2081C76.9549 85.5103 76.7897 85.8094 76.7459 86.1053C76.7021 86.4012 76.7654 86.709 76.9359 87.0287C77.11 87.3446 77.3843 87.6874 77.7587 88.057L77.9458 88.2345C78.3538 88.6216 78.7354 88.9118 79.0905 89.1051C79.4491 89.2946 79.7882 89.3686 80.1076 89.3271C80.4306 89.2817 80.7445 89.0985 81.0492 88.7773C81.3001 88.5128 81.4326 88.2257 81.4465 87.9158C81.4605 87.606 81.3652 87.2751 81.1607 86.9231C80.956 86.5638 80.6477 86.1887 80.2358 85.798C79.6162 85.2101 79.0581 84.8637 78.5617 84.7589C78.0653 84.654 77.6253 84.8038 77.2417 85.2081Z" fill="white"/>
<path d="M89.7854 70.9338L95.5377 77.5065L93.7387 79.081L89.1647 73.8546L86.7837 75.9383L91.3577 81.1648L89.5646 82.734L83.8123 76.1613L89.7854 70.9338Z" fill="white"/>
<path d="M101.613 67.1862C102.056 67.7651 102.37 68.338 102.555 68.9049C102.744 69.4687 102.809 70.0196 102.748 70.5578C102.689 71.0886 102.511 71.5925 102.214 72.0695C101.92 72.5433 101.513 72.9797 100.992 73.3787C100.504 73.7524 99.9956 74.0174 99.4659 74.1738C98.9403 74.327 98.4094 74.3662 97.8732 74.2914C97.338 74.2093 96.8167 74.0083 96.3092 73.6884C95.806 73.3653 95.3327 72.9143 94.8893 72.3354C94.3003 71.5663 93.938 70.8106 93.8023 70.0681C93.6667 69.3257 93.7451 68.6228 94.0374 67.9594C94.3297 67.296 94.8252 66.6967 95.524 66.1615C96.1732 65.6644 96.8541 65.3627 97.5666 65.2566C98.2832 65.1473 98.9885 65.2501 99.6823 65.565C100.38 65.8767 101.024 66.4171 101.613 67.1862ZM96.8183 70.8581C97.1666 71.313 97.5092 71.6575 97.8459 71.8916C98.1827 72.1257 98.5167 72.2406 98.8479 72.2362C99.1791 72.2318 99.5142 72.0998 99.8533 71.8401C100.188 71.5836 100.399 71.2976 100.485 70.9821C100.576 70.6635 100.55 70.3127 100.408 69.9297C100.269 69.5436 100.026 69.1231 99.6776 68.6683C99.3261 68.2093 98.9851 67.8669 98.6547 67.641C98.3253 67.4079 97.9965 67.2956 97.6685 67.3041C97.3404 67.3126 97.0068 67.4467 96.6678 67.7064C96.1674 68.0895 95.935 68.5398 95.9704 69.0572C96.01 69.5714 96.2926 70.1717 96.8183 70.8581Z" fill="white"/>
<path d="M105.535 59.219L107.71 57.7492L107.187 63.1566L112.853 64.8154L110.613 66.329L105.175 64.6579L107.655 68.3281L105.681 69.6623L100.79 62.4255L102.764 61.0913L105.14 64.6061L105.535 59.219Z" fill="white"/>
<path d="M111.895 55.0152C112.901 54.4149 113.803 54.1739 114.602 54.2921C115.4 54.4103 116.066 54.9167 116.599 55.8113L119.581 60.81L118.152 61.6624L117.147 60.8787L117.094 60.9107C117.039 61.3071 116.951 61.6571 116.828 61.9604C116.706 62.2638 116.524 62.5425 116.281 62.7964C116.038 63.0504 115.709 63.3014 115.293 63.5495C114.85 63.8137 114.401 63.9661 113.946 64.0069C113.496 64.045 113.066 63.9497 112.657 63.7209C112.245 63.4875 111.877 63.1003 111.555 62.559C111.08 61.7628 111.01 61.0101 111.345 60.3008C111.677 59.5871 112.39 58.8766 113.485 58.1694L114.762 57.3527L114.566 57.0239C114.332 56.6303 114.057 56.4031 113.741 56.3425C113.426 56.2818 113.085 56.3609 112.718 56.5796C112.356 56.7958 112.031 57.0593 111.744 57.3703C111.456 57.6813 111.185 58.0191 110.929 58.3838L109.427 57.4058C109.7 56.9581 110.046 56.5271 110.466 56.1129C110.891 55.6959 111.367 55.3301 111.895 55.0152ZM115.475 58.547L114.699 59.0461C114.048 59.4589 113.658 59.8522 113.529 60.2261C113.405 60.5974 113.449 60.9619 113.663 61.3198C113.85 61.6329 114.075 61.8019 114.338 61.8267C114.599 61.847 114.877 61.7691 115.172 61.593C115.61 61.3316 115.902 60.9817 116.047 60.5435C116.196 60.1027 116.128 59.6429 115.843 59.1643L115.475 58.547Z" fill="white"/>
<path d="M120.5 50.184C121.058 49.8908 121.618 49.6906 122.179 49.5837C122.738 49.4721 123.248 49.4896 123.707 49.6363C124.165 49.7785 124.518 50.0869 124.768 50.5618C125.012 51.0274 125.067 51.4724 124.931 51.8968C124.793 52.3167 124.523 52.7089 124.12 53.0736L124.156 53.1427C124.525 53.049 124.876 52.9999 125.209 52.9955C125.546 52.9886 125.855 53.0615 126.136 53.2142C126.416 53.3669 126.657 53.6346 126.858 54.0172C127.083 54.4459 127.156 54.9139 127.075 55.4211C126.992 55.9237 126.728 56.4334 126.282 56.9504C125.84 57.465 125.182 57.9525 124.306 58.413C123.891 58.6312 123.489 58.8187 123.101 58.9758C122.718 59.1304 122.355 59.2531 122.015 59.3439C121.672 59.4301 121.361 59.4819 121.081 59.4992L120.165 57.7566C120.561 57.7369 121.024 57.6669 121.555 57.5466C122.091 57.4238 122.624 57.2231 123.154 56.9443C123.537 56.7432 123.868 56.5337 124.148 56.316C124.432 56.0959 124.63 55.874 124.742 55.6504C124.856 55.4197 124.855 55.1938 124.739 54.9725C124.63 54.7651 124.459 54.6369 124.228 54.588C123.998 54.5321 123.703 54.558 123.342 54.6655C122.983 54.766 122.554 54.9472 122.056 55.2089L121.24 55.6379L120.473 54.1789L121.248 53.7717C121.948 53.4033 122.46 53.0609 122.782 52.7444C123.104 52.428 123.184 52.1154 123.021 51.8065C122.89 51.5576 122.67 51.4351 122.36 51.4391C122.051 51.4431 121.614 51.5929 121.052 51.8886C120.688 52.0801 120.31 52.3347 119.918 52.6526C119.524 52.9658 119.176 53.3014 118.876 53.6593L117.479 52.5136C117.837 52.108 118.248 51.7152 118.713 51.3352C119.181 50.9483 119.776 50.5646 120.5 50.184Z" fill="white"/>
<path d="M128.749 46.0708C129.813 45.5793 130.735 45.4341 131.517 45.6353C132.298 45.8364 132.907 46.4098 133.344 47.3554L135.786 52.6389L134.275 53.3369L133.359 52.4523L133.302 52.4785C133.206 52.8671 133.081 53.2058 132.928 53.4947C132.775 53.7836 132.564 54.0416 132.296 54.2687C132.028 54.4958 131.674 54.711 131.234 54.9141C130.766 55.1304 130.304 55.235 129.847 55.228C129.396 55.2187 128.978 55.0788 128.595 54.8084C128.21 54.5332 127.885 54.1095 127.62 53.5375C127.232 52.6959 127.241 51.94 127.648 51.2697C128.054 50.5948 128.837 49.9629 130 49.3742L131.356 48.6959L131.195 48.3484C131.003 47.9323 130.753 47.6776 130.446 47.5842C130.139 47.4909 129.792 47.5338 129.404 47.7129C129.021 47.8899 128.671 48.118 128.352 48.3971C128.034 48.6763 127.728 48.9838 127.436 49.3197L126.044 48.1897C126.363 47.7731 126.752 47.3808 127.213 47.0128C127.679 46.6426 128.191 46.3286 128.749 46.0708ZM131.939 49.9582L131.116 50.3733C130.425 50.7156 129.995 51.0659 129.828 51.4243C129.666 51.7805 129.672 52.1477 129.847 52.5259C130 52.8569 130.206 53.0485 130.465 53.1007C130.722 53.1483 131.007 53.1 131.319 52.9558C131.783 52.7417 132.109 52.4243 132.299 52.0037C132.494 51.5809 132.475 51.1166 132.241 50.6107L131.939 49.9582Z" fill="white"/>
<path d="M136.996 42.6459L138.232 45.7699L141.327 44.5461L140.091 41.4221L142.307 40.5459L145.519 48.6683L143.303 49.5445L141.979 46.1953L138.884 47.4191L140.208 50.7683L137.992 51.6445L134.78 43.5221L136.996 42.6459Z" fill="white"/>
<path d="M148.138 38.4832L149.203 41.768C149.257 41.9365 149.319 42.1519 149.387 42.4144C149.459 42.6702 149.528 42.9327 149.593 43.2017C149.659 43.4707 149.715 43.7125 149.763 43.927C149.811 44.1415 149.841 44.2875 149.856 44.365L151.801 37.2953L154.529 36.411L157.223 44.7196L155.03 45.4304L153.956 42.1159C153.867 41.8434 153.78 41.5404 153.694 41.207C153.606 40.8686 153.527 40.5493 153.457 40.2489C153.387 39.9486 153.333 39.7225 153.295 39.5707L151.359 46.6207L148.639 47.5026L145.945 39.194L148.138 38.4832Z" fill="white"/>
<path d="M159.301 35.0738L160.16 38.4185C160.204 38.59 160.252 38.8089 160.304 39.0751C160.36 39.335 160.412 39.6012 160.46 39.8738C160.509 40.1463 160.55 40.3911 160.584 40.6082C160.619 40.8252 160.64 40.9729 160.65 41.0512L163.032 34.1163L165.809 33.4036L167.98 41.8637L165.748 42.4367L164.882 39.0617C164.811 38.7842 164.742 38.4764 164.677 38.1383C164.61 37.7951 164.552 37.4714 164.5 37.1673C164.449 36.8632 164.409 36.6342 164.381 36.4802L162.01 43.3961L159.24 44.1069L157.069 35.6467L159.301 35.0738ZM164.239 29.9268C164.321 30.4758 164.291 30.9864 164.148 31.4584C164.006 31.9305 163.702 32.3474 163.235 32.7091C162.769 33.0707 162.092 33.3655 161.204 33.5934C160.291 33.8277 159.552 33.9018 158.986 33.8157C158.42 33.7245 157.976 33.5049 157.656 33.157C157.334 32.804 157.079 32.3559 156.891 31.8126L158.957 31.2824C159.149 31.8409 159.39 32.1823 159.68 32.3068C159.969 32.4263 160.38 32.4174 160.915 32.2802C161.359 32.1662 161.696 31.9721 161.927 31.6978C162.158 31.4235 162.232 31.0119 162.151 30.4629L164.239 29.9268Z" fill="white"/>
<path d="M393.25 138.981C379.794 99.4001 354.388 64.969 320.537 40.4366C286.686 15.9042 246.057 2.47901 204.253 2.01269L203.537 66.1732C232.062 66.4914 259.786 75.6521 282.884 92.3919C305.983 109.132 323.318 132.626 332.5 159.634L393.25 138.981Z" fill="#FEEF10"/>
<path d="M246.999 44.1845L247.032 41.3426L243.063 40.0837L241.451 42.4248L238.964 41.6359L246.274 31.9227L249.097 32.8179L249.487 44.9734L246.999 44.1845ZM247.095 39.2316L247.109 36.4493C247.113 36.2648 247.114 36.0275 247.113 35.7377C247.119 35.4444 247.123 35.1478 247.125 34.848C247.134 34.5448 247.145 34.2835 247.16 34.0642C247.046 34.252 246.896 34.4832 246.711 34.7577C246.532 35.0288 246.36 35.2858 246.196 35.5287C246.031 35.7716 245.914 35.9446 245.843 36.0478L244.258 38.3317L247.095 39.2316Z" fill="#222222"/>
<path d="M256.8 38.3947L255.58 41.5246L258.681 42.7334L259.901 39.6035L262.121 40.469L258.949 48.6068L256.729 47.7413L258.037 44.3858L254.936 43.1769L253.628 46.5325L251.408 45.667L254.58 37.5292L256.8 38.3947Z" fill="#222222"/>
<path d="M267.865 42.7892C268.932 43.2738 269.644 43.8777 270.002 44.6009C270.36 45.3241 270.324 46.1599 269.893 47.1083L267.486 52.4076L265.971 51.7194L266.042 50.4476L265.985 50.4217C265.628 50.6029 265.291 50.7297 264.972 50.8022C264.653 50.8747 264.32 50.8836 263.973 50.8289C263.626 50.7743 263.232 50.6468 262.791 50.4465C262.321 50.2332 261.94 49.9514 261.647 49.6011C261.359 49.2529 261.193 48.8454 261.147 48.3786C261.104 47.907 261.213 47.3843 261.473 46.8105C261.857 45.9665 262.435 45.4799 263.209 45.3508C263.985 45.217 264.975 45.398 266.18 45.8938L267.579 46.4779L267.738 46.1294C267.927 45.7121 267.957 45.3566 267.827 45.0631C267.697 44.7696 267.438 44.5346 267.049 44.3579C266.665 44.1835 266.263 44.0668 265.844 44.0078C265.425 43.9489 264.992 43.9184 264.547 43.9163L264.494 42.1247C265.017 42.0936 265.569 42.1324 266.149 42.2413C266.733 42.3524 267.305 42.535 267.865 42.7892ZM267.004 47.744L266.152 47.3912C265.442 47.0914 264.896 46.9952 264.515 47.1026C264.14 47.2122 263.866 47.4567 263.693 47.8361C263.542 48.168 263.532 48.4493 263.662 48.6798C263.794 48.9057 264.016 49.0897 264.329 49.2318C264.794 49.4429 265.248 49.4831 265.69 49.3524C266.138 49.2238 266.477 48.9058 266.707 48.3984L267.004 47.744Z" fill="#222222"/>
<path d="M277.178 57.3514L275.068 56.2448L278.293 50.0938L276.349 49.0743C275.657 50.1583 275.035 51.0641 274.483 51.792C273.931 52.5199 273.419 53.0808 272.948 53.4747C272.479 53.864 272.03 54.093 271.6 54.1616C271.17 54.2302 270.729 54.1459 270.277 53.9089C270.027 53.7783 269.813 53.6425 269.634 53.5016C269.46 53.3631 269.311 53.2147 269.189 53.0562L270.074 51.368C270.154 51.4627 270.244 51.5541 270.345 51.6423C270.448 51.7258 270.559 51.799 270.679 51.8619C270.813 51.932 270.968 51.9455 271.143 51.9023C271.319 51.8591 271.528 51.7361 271.769 51.5335C272.013 51.3262 272.302 51.0161 272.636 50.6032C272.975 50.1927 273.368 49.6552 273.817 48.9905C274.265 48.3259 274.787 47.5112 275.381 46.5466L281.234 49.6159L277.178 57.3514Z" fill="#222222"/>
<path d="M285.828 52.2258L284.046 55.1839C283.955 55.3356 283.833 55.5234 283.68 55.7474C283.534 55.9696 283.381 56.1935 283.22 56.4192C283.06 56.645 282.915 56.8461 282.784 57.0228C282.653 57.1994 282.563 57.3185 282.514 57.3801L289.127 54.2127L291.583 55.6918L287.077 63.1742L285.103 61.9853L286.901 59.0004C287.048 58.755 287.22 58.4904 287.415 58.2067C287.613 57.9185 287.802 57.6495 287.983 57.3997C288.164 57.1499 288.299 56.9607 288.389 56.8322L281.797 59.9943L279.347 58.5192L283.853 51.0368L285.828 52.2258Z" fill="#222222"/>
<path d="M297.357 59.3337C297.877 59.689 298.316 60.0895 298.674 60.5355C299.035 60.9771 299.258 61.4353 299.344 61.9101C299.433 62.3805 299.326 62.8373 299.024 63.2804C298.727 63.7149 298.36 63.9717 297.921 64.0507C297.485 64.1255 297.012 64.0705 296.501 63.8859L296.457 63.9504C296.713 64.232 296.921 64.5188 297.081 64.8109C297.245 65.1059 297.326 65.4131 297.322 65.7323C297.319 66.0515 297.195 66.3897 296.951 66.7467C296.678 67.1468 296.299 67.4302 295.813 67.5969C295.331 67.7592 294.756 67.7645 294.09 67.6129C293.429 67.4642 292.69 67.1109 291.872 66.5531C291.485 66.2889 291.131 66.0221 290.81 65.7528C290.494 65.4865 290.216 65.2242 289.976 64.9659C289.739 64.7033 289.547 64.4527 289.401 64.2142L290.511 62.5881C290.714 62.9283 290.993 63.3047 291.348 63.7174C291.708 64.133 292.135 64.5096 292.63 64.8472C292.987 65.0909 293.327 65.2853 293.65 65.4304C293.978 65.5784 294.267 65.6494 294.517 65.6434C294.774 65.6361 294.973 65.5292 295.114 65.3227C295.246 65.1291 295.28 64.9185 295.214 64.691C295.156 64.4621 294.995 64.2134 294.73 63.9447C294.473 63.6747 294.112 63.3811 293.648 63.0641L292.886 62.5444L293.815 61.1828L294.538 61.676C295.192 62.1223 295.734 62.4134 296.165 62.5496C296.595 62.6857 296.909 62.6096 297.106 62.3214C297.264 62.0891 297.269 61.837 297.12 61.5653C296.971 61.2935 296.635 60.9786 296.11 60.6204C295.77 60.3885 295.368 60.1739 294.903 59.9768C294.442 59.7753 293.983 59.6259 293.526 59.5285L293.883 57.7576C294.409 57.8832 294.949 58.0624 295.502 58.2952C296.063 58.5266 296.681 58.8728 297.357 59.3337Z" fill="#222222"/>
<path d="M311.152 69.8566L306.797 75.3274L307.8 76.1254L304.764 79.9396L303.089 78.6065L305.04 76.1554L300.443 72.4966L298.492 74.9478L296.817 73.6147L299.853 69.8004L300.428 70.2578C301.096 70.0373 301.767 69.7127 302.441 69.284C303.119 68.8585 303.784 68.366 304.436 67.8064C305.095 67.2459 305.724 66.6482 306.323 66.013L311.152 69.8566ZM308.173 69.7725L306.773 68.6583C306.306 69.1118 305.833 69.5343 305.355 69.9259C304.884 70.3167 304.402 70.6717 303.908 70.991C303.418 71.3062 302.908 71.5791 302.378 71.8098L304.933 73.8435L308.173 69.7725Z" fill="#222222"/>
<path d="M316.486 74.2307C317.359 75.0117 317.859 75.8008 317.985 76.5978C318.111 77.3949 317.826 78.1817 317.132 78.9584L313.253 83.2977L312.013 82.1886L312.46 80.9961L312.414 80.9545C312.019 81.0208 311.659 81.041 311.333 81.015C311.007 80.989 310.686 80.8981 310.371 80.7424C310.056 80.5867 309.718 80.3474 309.357 80.0246C308.973 79.681 308.693 79.2982 308.518 78.8765C308.347 78.4582 308.31 78.0195 308.406 77.5604C308.505 77.0974 308.765 76.631 309.185 76.1612C309.803 75.47 310.5 75.1783 311.277 75.286C312.058 75.3898 312.949 75.8582 313.951 76.691L315.112 77.6661L315.367 77.3807C315.673 77.039 315.807 76.7087 315.771 76.3899C315.735 76.071 315.557 75.7692 315.239 75.4846C314.924 75.2034 314.576 74.9721 314.193 74.7907C313.81 74.6093 313.407 74.4511 312.983 74.3163L313.467 72.5905C313.976 72.717 314.49 72.9187 315.011 73.1957C315.536 73.4761 316.027 73.8211 316.486 74.2307ZM314.185 78.7029L313.477 78.1118C312.889 77.6136 312.397 77.359 312.001 77.3479C311.61 77.3404 311.276 77.4919 310.998 77.8025C310.755 78.0743 310.661 78.3397 310.716 78.5985C310.775 78.8534 310.932 79.0954 311.188 79.3245C311.569 79.6647 311.99 79.8384 312.451 79.8458C312.917 79.8566 313.335 79.6543 313.706 79.2388L314.185 78.7029Z" fill="#222222"/>
<path d="M323.297 80.8485L320.913 83.2154L323.258 85.5772L325.642 83.2102L327.321 84.9012L321.122 91.0552L319.444 89.3642L321.999 86.8267L319.654 84.4649L317.099 87.0025L315.42 85.3115L321.618 79.1575L323.297 80.8485Z" fill="#222222"/>
<path d="M330.454 88.3156L327.935 90.5387L330.137 93.0338L332.656 90.8107L334.233 92.5972L327.685 98.3772L326.108 96.5908L328.808 94.2074L326.605 91.7123L323.905 94.0956L322.328 92.3092L328.877 86.5292L330.454 88.3156Z" fill="#222222"/>
<path d="M329.4 100.318L336.337 95.0112L337.785 96.9039L335.104 98.9543L335.802 99.8665C336.343 100.574 336.715 101.214 336.917 101.787C337.122 102.365 337.157 102.882 337.022 103.34C336.891 103.794 336.596 104.197 336.137 104.548C335.69 104.89 335.222 105.084 334.733 105.13C334.244 105.176 333.737 105.046 333.213 104.738C332.69 104.43 332.151 103.915 331.597 103.191L329.4 100.318ZM332.157 101.209L332.826 102.084C333.107 102.452 333.405 102.703 333.717 102.838C334.034 102.969 334.35 102.915 334.664 102.674C334.933 102.469 335.045 102.212 335.001 101.905C334.956 101.599 334.771 101.232 334.445 100.806L333.795 99.9558L332.157 101.209ZM334.696 107.243L341.634 101.937L343.082 103.829L336.144 109.136L334.696 107.243Z" fill="#222222"/>
<path d="M342.606 110.712L344.621 106.009L346.111 108.264L344.726 111.212L347.989 111.106L349.48 113.361L344.347 113.345L342.266 118.288L340.771 116.026L342.255 112.844L338.743 112.956L337.252 110.701L342.606 110.712Z" fill="#222222"/>
</svg>
